<svg xmlns="http://www.w3.org/2000/svg" width="120" height="38" viewBox="0 0 120 38">
    <path fill="#FF4612" fill-rule="nonzero" d="M43.041 20.525c-3.15-1.078-5.169-1.493-5.025-3.38.103-1.471 1.215-2.218 3.234-2.072 1.482.124 2.368.725 2.821 1.658a3.48 3.48 0 0 0 3.068 1.949c2.945.062 4.737-3.38 2.884-5.68-1.669-2.074-4.387-3.484-8.238-3.774-6.755-.518-10.997 2.509-11.388 7.692-.433 5.535 3.274 7.028 8.876 8.935 3.83 1.244 4.777 1.846 4.654 3.463-.124 1.575-1.483 2.363-3.563 2.197-1.73-.124-2.8-.829-3.295-1.865-.556-1.161-1.833-1.825-3.11-1.846a3.477 3.477 0 0 0-2.574 1.037c-.638.643-1.441 1.638-4.304 1.638-2.06-.062-3.892-1.182-3.892-4.084l.062-9.745c.618.394 1.359.622 2.162.622a4.14 4.14 0 0 0 4.16-4.146c0-2.343-1.853-4.188-4.16-4.188a3.9 3.9 0 0 0-2.1.622l.02-3.566c0-1.265-1.009-2.302-2.265-2.302H18.02a2.262 2.262 0 0 0-2.265 2.26l-.144 20.92c-.206 2.591-1.998 3.607-3.996 3.607-2.12-.02-4.015-1.12-4.015-4.084l.144-13.207c0-.83-.66-1.514-1.504-1.514H1.648c-.824 0-1.483.664-1.503 1.493L0 28.217c-.062 6.282 4.86 9.122 11.635 9.122 2.821 0 4.778-1.14 6.096-2.757 1.73 1.866 4.407 2.757 7.66 2.757 3.275 0 5.684-.435 8.094-1.803 1.668.995 3.81 1.617 6.404 1.824 7.002.54 11.265-2.654 11.698-8.148.37-4.913-3.295-6.862-8.547-8.687zM4.12 8.335a4.14 4.14 0 0 0 4.16-4.147C8.28 1.866 6.446 0 4.12 0 1.895 0 .001 1.866.001 4.188c0 2.301 1.791 4.146 4.118 4.146zm103.05.87c-6.795 0-11.882 3.857-13.303 10.346-.39-6.096-4.242-9.724-9.926-9.724-3.974 0-6.549 1.783-8.072 4.188-1.73-2.716-4.634-4.188-8.238-4.188-3.357 0-13.921-.414-13.921 13.27 0 .29 0 .538.02.808l-.02.02v9.143a3.717 3.717 0 0 0 3.707 3.732c2.038 0 3.707-1.68 3.707-3.732V22.122c0-3.172 1.77-5.329 4.736-5.329 2.698 0 4.263 1.887 4.263 5.266v11.01c0 2.052 1.668 3.731 3.707 3.731 2.06 0 3.707-1.68 3.707-3.732v-11.88c.309-2.653 1.935-4.395 4.571-4.395 2.842 0 4.366 1.887 4.366 5.266v11.01c0 2.052 1.668 3.731 3.707 3.731 2.039 0 3.707-1.68 3.707-3.732v-5.846c1.462 6.365 6.549 10.2 13.468 10.2 3.254 0 6.323-.995 8.567-2.654.083-.062.144-.103.227-.165.082-.063.185-.125.247-.187 0 0 0-.02.02-.041.124-.104.248-.187.371-.311 2.183-1.99.927-5.681-1.997-6.054a3.527 3.527 0 0 0-3.337 1.472v.02c-.844 1.12-2.306 1.742-4.324 1.742-3.44 0-5.458-2.156-5.622-5.494h16.063a2.443 2.443 0 0 0 2.43-2.447v-.6c.04-8.46-5.066-13.498-12.83-13.498zm-5.621 11.424c.206-3.462 2.348-5.453 5.58-5.453 3.44 0 5.108 2.156 5.252 5.453h-10.832z"/>
</svg>
